<svg width="140" height="29" viewBox="0 0 140 29" fill="none" xmlns="http://www.w3.org/2000/svg">
<path d="M3.512 29C3.16 29 2.856 28.84 2.6 28.52C2.344 28.168 2.168 27.848 2.072 27.56C1.304 24.488 0.92 20.808 0.92 16.52C0.92 14.024 1.416 11.608 2.408 9.272C3.4 6.936 4.952 4.952 7.064 3.32C9.176 1.688 11.576 0.871999 14.264 0.871999C16.984 0.871999 19.112 1.512 20.648 2.792C22.216 4.04 23 5.896 23 8.36C23 13.8 19.48 16.52 12.44 16.52C16.376 18.984 19.416 21.448 21.56 23.912C22.52 25.064 23 25.8 23 26.12C23 27.08 22.52 27.56 21.56 27.56C21.176 27.56 20.856 27.432 20.6 27.176C20.344 26.92 20.024 26.568 19.64 26.12C18.296 24.552 16.856 23.176 15.32 21.992C13.816 20.808 11.256 19.112 7.64 16.904C6.68 16.296 6.2 15.688 6.2 15.08C6.2 14.12 6.68 13.64 7.64 13.64H12.44C15.096 13.64 17.032 13.256 18.248 12.488C19.496 11.72 20.12 10.456 20.12 8.696C20.12 6.904 19.656 5.64 18.728 4.904C17.832 4.136 16.456 3.752 14.6 3.752C12.744 3.752 11.128 4.136 9.752 4.904C8.344 5.704 7.224 6.744 6.392 8.024C4.664 10.648 3.8 13.48 3.8 16.52C3.8 20.488 4.152 23.928 4.856 26.84C4.92 27.032 4.952 27.272 4.952 27.56C4.952 28.52 4.472 29 3.512 29ZM28.0899 26.216C28.0579 26.216 27.8179 26.344 27.3699 26.6C26.2179 27.24 25.3699 27.56 24.8259 27.56C23.8659 27.56 23.3859 27.08 23.3859 26.12C23.3859 25.512 23.8659 25.016 24.8259 24.632C24.9859 24.568 25.3699 24.376 25.9779 24.056C26.5859 23.736 26.9379 23.544 27.0339 23.48C26.9059 23.192 26.8419 22.76 26.8419 22.184C26.8419 19.304 27.8499 16.84 29.8659 14.792C31.8819 12.744 33.7219 11.72 35.3859 11.72C37.0499 11.72 38.3619 12.12 39.3219 12.92C40.2819 13.688 40.7619 14.632 40.7619 15.752C40.7619 16.84 40.5059 17.784 39.9939 18.584C39.4819 19.384 38.6819 20.168 37.5939 20.936C36.0899 22.024 33.8979 23.288 31.0179 24.728C32.2979 25.656 34.0739 26.12 36.3459 26.12C38.6179 26.12 40.8579 25.752 43.0659 25.016C43.7379 24.792 44.1219 24.68 44.2179 24.68C45.1779 24.68 45.6579 25.16 45.6579 26.12C45.6579 26.824 45.1779 27.336 44.2179 27.656C41.5299 28.552 38.9379 29 36.4419 29C32.8899 29 30.1059 28.072 28.0899 26.216ZM29.7219 22.184C35.1619 19.464 37.8819 17.416 37.8819 16.04C37.8819 15.08 37.0819 14.6 35.4819 14.6C34.5219 14.6 33.3219 15.368 31.8819 16.904C30.4419 18.408 29.7219 20.168 29.7219 22.184ZM54.7006 26.12C56.9086 26.12 58.7326 25.352 60.1726 23.816C61.6446 22.28 62.3806 20.936 62.3806 19.784C62.3806 18.76 60.6206 18.088 57.1006 17.768C55.7886 17.64 54.5726 17.208 53.4526 16.472C52.3646 15.736 51.8206 14.664 51.8206 13.256C51.8206 12.776 52.0766 11.544 52.5886 9.56C53.1006 7.544 53.3566 6.232 53.3566 5.624C53.3566 5.016 53.3406 4.632 53.3086 4.472C53.3086 4.312 53.2286 4.152 53.0686 3.992C52.9086 3.832 52.6846 3.752 52.3966 3.752C51.6926 3.752 50.9406 4.92 50.1406 7.256C49.3406 9.592 48.9406 11.592 48.9406 13.256C48.9406 14.92 49.3566 17.416 50.1886 20.744C50.2526 20.936 50.2846 21.128 50.2846 21.32C50.2846 22.28 49.8046 22.76 48.8446 22.76C48.0766 22.76 47.5646 22.28 47.3086 21.32C46.4766 17.992 46.0606 15.304 46.0606 13.256C46.0606 11.4 46.5086 9 47.4046 6.056C47.8526 4.584 48.5086 3.352 49.3726 2.36C50.2686 1.368 51.3246 0.871999 52.5406 0.871999C53.7566 0.871999 54.6686 1.272 55.2766 2.072C55.9166 2.872 56.2366 3.928 56.2366 5.24C56.2366 6.52 55.9806 8.152 55.4686 10.136C54.9566 12.088 54.7006 13.128 54.7006 13.256C54.7006 14.28 56.4606 14.952 59.9806 15.272C61.2926 15.4 62.4926 15.832 63.5806 16.568C64.7006 17.304 65.2606 18.376 65.2606 19.784C65.2606 21.736 64.2526 23.768 62.2366 25.88C60.2526 27.96 57.7406 29 54.7006 29C53.2286 29 51.8846 28.584 50.6686 27.752C49.4526 26.92 48.8446 26.216 48.8446 25.64C48.8446 24.68 49.3246 24.2 50.2846 24.2C50.5086 24.2 51.0686 24.52 51.9646 25.16C52.8926 25.8 53.8046 26.12 54.7006 26.12ZM70.3711 26.216C70.3391 26.216 70.0991 26.344 69.6511 26.6C68.4991 27.24 67.6511 27.56 67.1071 27.56C66.1471 27.56 65.6671 27.08 65.6671 26.12C65.6671 25.512 66.1471 25.016 67.1071 24.632C67.2671 24.568 67.6511 24.376 68.2591 24.056C68.8671 23.736 69.2191 23.544 69.3151 23.48C69.1871 23.192 69.1231 22.76 69.1231 22.184C69.1231 19.304 70.1311 16.84 72.1471 14.792C74.1631 12.744 76.0031 11.72 77.6671 11.72C79.3311 11.72 80.6431 12.12 81.6031 12.92C82.5631 13.688 83.0431 14.632 83.0431 15.752C83.0431 16.84 82.7871 17.784 82.2751 18.584C81.7631 19.384 80.9631 20.168 79.8751 20.936C78.3711 22.024 76.1791 23.288 73.2991 24.728C74.5791 25.656 76.3551 26.12 78.6271 26.12C80.8991 26.12 83.1391 25.752 85.3471 25.016C86.0191 24.792 86.4031 24.68 86.4991 24.68C87.4591 24.68 87.9391 25.16 87.9391 26.12C87.9391 26.824 87.4591 27.336 86.4991 27.656C83.8111 28.552 81.2191 29 78.7231 29C75.1711 29 72.3871 28.072 70.3711 26.216ZM72.0031 22.184C77.4431 19.464 80.1631 17.416 80.1631 16.04C80.1631 15.08 79.3631 14.6 77.7631 14.6C76.8031 14.6 75.6031 15.368 74.1631 16.904C72.7231 18.408 72.0031 20.168 72.0031 22.184ZM106.39 26.744C102.39 28.248 99.1419 29 96.6459 29C94.1819 29 92.1819 28.216 90.6459 26.648C89.1099 25.048 88.3419 23.272 88.3419 21.32C88.3419 18.472 89.7499 15.848 92.5659 13.448C95.3819 11.016 98.2939 9.8 101.302 9.8C102.614 9.8 103.814 10.072 104.902 10.616C106.022 11.16 106.582 11.688 106.582 12.2C106.582 13.16 106.102 13.64 105.142 13.64C104.726 13.64 104.198 13.48 103.558 13.16C102.918 12.84 102.166 12.68 101.302 12.68C99.0619 12.68 96.8219 13.608 94.5819 15.464C92.3419 17.288 91.2219 19.24 91.2219 21.32C91.2219 22.664 91.7499 23.8 92.8059 24.728C93.8939 25.656 95.2859 26.12 96.9819 26.12C98.6779 26.12 101.414 25.464 105.19 24.152C105.158 23.96 105.142 23.656 105.142 23.24C105.142 20.136 106.166 17.688 108.214 15.896C110.294 14.072 112.662 13.16 115.318 13.16C116.79 13.16 118.118 13.432 119.302 13.976C120.486 14.52 121.078 15.048 121.078 15.56C121.078 16.52 120.598 17 119.638 17C119.446 17 118.902 16.84 118.006 16.52C117.11 16.2 116.214 16.04 115.318 16.04C113.558 16.04 111.894 16.648 110.326 17.864C108.79 19.048 108.022 20.84 108.022 23.24C108.022 23.944 108.246 24.52 108.694 24.968C109.142 25.416 109.718 25.64 110.422 25.64C112.31 25.64 114.23 25.064 116.182 23.912C118.134 22.728 119.398 21.72 119.974 20.888L120.646 19.88C120.902 19.496 121.094 19.208 121.222 19.016C121.382 18.824 121.526 18.632 121.654 18.44C121.878 18.088 122.134 17.928 122.422 17.96C123.222 17.96 123.782 18.184 124.102 18.632C124.422 19.048 124.63 19.848 124.726 21.032C124.982 24.04 125.334 25.544 125.782 25.544C126.262 25.544 126.806 25.48 127.414 25.352C128.022 25.192 128.55 25.048 128.998 24.92C129.446 24.76 129.686 24.68 129.718 24.68C130.678 24.68 131.158 25.16 131.158 26.12C131.158 26.824 130.678 27.336 129.718 27.656C128.182 28.168 126.934 28.424 125.974 28.424C125.046 28.424 124.31 28.2 123.766 27.752C123.222 27.272 122.838 26.68 122.614 25.976C122.23 24.76 122.038 23.736 122.038 22.904C121.526 23.832 120.054 25 117.622 26.408C115.19 27.816 112.79 28.52 110.422 28.52C108.758 28.52 107.414 27.928 106.39 26.744ZM136.841 25.352C137.353 25.352 137.881 25.576 138.425 26.024C138.969 26.472 139.241 26.952 139.241 27.464C139.241 27.976 139.017 28.36 138.569 28.616C138.153 28.872 137.689 29 137.177 29C136.665 29 136.233 28.776 135.881 28.328C135.561 27.848 135.401 27.336 135.401 26.792C135.401 25.832 135.881 25.352 136.841 25.352Z" fill="black"/>
</svg>
