
<svg width="127" height="34" viewBox="0 0 127 34" fill="none" xmlns="http://www.w3.org/2000/svg">
<path d="M10870 14400 c-156 -27 -308 -203 -475 -545 -70 -145 -173 -379 -201
-459 -33 -93 -265 -390 -369 -471 -200 -156 -453 -243 -555 -190 -176 91 76
515 407 687 41 21 87 38 102 38 109 0 25 -154 -142 -264 -88 -58 -227 -126
-257 -126 -14 0 -35 -6 -45 -14 -28 -20 -3 -46 44 -46 36 0 123 21 166 40 150
65 230 115 293 184 78 85 100 171 63 253 -54 118 -225 99 -451 -52 -233 -155
-367 -319 -399 -490 -21 -115 34 -218 142 -266 64 -28 199 -37 290 -20 172 33
405 195 540 376 l60 80 -7 -40 c-15 -97 -18 -211 -4 -249 16 -48 57 -81 87
-71 29 9 43 38 45 99 2 61 29 121 97 213 136 186 362 356 478 357 40 1 47 -2
59 -28 33 -67 -48 -264 -155 -381 -79 -86 -237 -202 -366 -268 -98 -50 -153
-66 -271 -75 -84 -7 -104 -21 -64 -44 15 -8 63 -13 143 -13 131 0 206 18 334
76 171 79 430 306 500 439 75 142 69 239 -19 309 -27 22 -70 47 -95 57 -40 15
-53 15 -103 5 -69 -15 -149 -50 -199 -88 -75 -54 -202 -175 -255 -239 -61 -76
-71 -68 -38 29 31 92 37 99 140 177 158 118 291 233 432 372 194 192 277 312
308 444 10 43 9 57 -5 90 -9 21 -25 48 -36 60 -38 41 -146 67 -219 54z m166
-127 c16 -61 -55 -200 -176 -348 -139 -169 -510 -496 -510 -450 0 12 122 248
171 331 145 247 316 443 433 495 47 21 72 12 82 -28z"/>
<path d="M8440 14375 c-8 -2 -49 -9 -90 -15 -269 -43 -526 -164 -682 -323 -82
-83 -118 -162 -118 -260 0 -98 22 -148 92 -213 82 -75 198 -108 198 -57 0 12
-26 33 -80 62 -95 53 -114 77 -113 147 3 192 235 375 588 463 309 76 653 89
900 34 125 -28 203 -73 256 -146 26 -36 29 -48 29 -119 0 -58 -5 -88 -19 -116
-70 -134 -308 -292 -571 -379 -258 -85 -590 -137 -590 -92 0 16 170 279 242
376 120 158 227 243 306 243 27 0 32 4 32 23 0 29 -43 71 -92 91 -92 39 -182
4 -300 -116 -96 -97 -130 -154 -139 -229 -5 -43 -25 -94 -75 -194 -37 -75 -74
-141 -80 -146 -9 -7 -19 -7 -33 0 -31 17 -70 13 -102 -10 -40 -28 -41 -88 -3
-118 15 -12 33 -21 40 -21 8 0 14 -1 14 -3 0 -2 -32 -73 -71 -158 -87 -188
-149 -358 -149 -409 0 -49 18 -63 90 -68 52 -4 62 -1 95 24 41 33 175 215 175
238 0 33 -35 14 -98 -54 -51 -55 -71 -70 -93 -70 -24 0 -29 4 -29 25 0 13 7
46 16 72 24 71 187 393 199 393 5 0 39 -43 75 -95 241 -351 322 -454 490 -625
224 -228 484 -351 745 -354 98 -1 119 2 188 28 110 40 160 89 192 184 37 109
28 233 -16 247 -31 10 -38 -3 -37 -73 2 -93 -36 -157 -116 -197 -90 -46 -284
-39 -433 14 -315 113 -553 320 -930 808 l-62 81 87 7 c324 26 629 111 838 233
91 53 212 166 247 230 64 118 70 233 17 340 -68 135 -203 222 -415 268 -107
24 -145 27 -360 30 -132 1 -247 1 -255 -1z"/>
<path d="M11716 13559 c-114 -18 -375 -185 -501 -320 -115 -125 -160 -221
-160 -344 0 -71 3 -84 28 -122 56 -82 152 -123 286 -123 180 1 326 65 515 226
l66 55 0 -47 c0 -62 31 -125 83 -169 150 -129 482 -64 717 140 53 46 66 53 68
38 8 -52 16 -68 55 -110 48 -52 125 -93 177 -93 44 1 130 36 195 80 28 18 110
94 184 168 109 109 133 129 128 106 -46 -215 -27 -322 63 -369 65 -34 188 -7
290 63 125 86 370 349 370 398 0 18 -17 34 -35 34 -1 0 -20 -24 -42 -52 -89
-118 -317 -320 -400 -354 -45 -19 -60 -18 -88 11 -20 19 -25 34 -25 73 0 107
66 294 148 420 34 51 34 53 17 72 -23 25 -85 45 -118 36 -15 -3 -89 -73 -179
-167 -253 -266 -453 -433 -535 -446 -46 -8 -63 13 -63 79 0 112 156 329 335
463 83 63 247 143 320 156 76 14 152 5 187 -21 37 -27 48 -25 48 9 0 31 -35
72 -85 99 -41 23 -193 21 -266 -3 -130 -43 -322 -160 -456 -277 -39 -35 -105
-103 -146 -153 -100 -121 -210 -224 -294 -274 -133 -79 -335 -129 -415 -102
-40 13 -68 56 -68 103 1 46 39 153 80 223 43 73 222 256 307 313 72 49 144 82
178 82 36 0 47 -22 39 -80 -5 -38 -3 -54 6 -60 22 -14 40 0 65 51 59 115 8
189 -128 189 -174 0 -475 -206 -661 -453 -104 -138 -230 -238 -402 -319 -111
-52 -167 -68 -237 -68 -168 0 -194 133 -65 347 43 72 182 219 266 282 140 105
253 140 260 79 10 -83 -131 -214 -345 -322 -40 -20 -83 -36 -96 -36 -33 0 -62
-23 -54 -44 10 -24 85 -20 175 10 252 84 423 238 422 378 -1 47 -35 113 -67
129 -39 20 -89 25 -147 16z"/>
</svg>
